<svg width="507" height="475" viewBox="0 0 507 475" fill="none" xmlns="http://www.w3.org/2000/svg">
<path fill-rule="evenodd" clip-rule="evenodd" d="M242.67 32.2544C239.436 31.7749 234.536 31.3896 231.782 31.3984C229.028 31.4071 225.065 31.26 222.976 31.0718C220.886 30.8835 218.409 30.7923 217.471 30.8693C216.533 30.9458 215.243 30.8615 214.603 30.6812C213.963 30.5008 213.395 30.5232 213.339 30.7303C213.214 31.197 209.416 32.4166 200.966 34.7038C197.391 35.6712 194.084 36.8198 193.617 37.2565C193.149 37.6932 192.53 37.9869 192.241 37.9095C191.325 37.6639 178.549 45.174 174.531 48.3199C172.408 49.9823 170.065 51.6536 169.324 52.0333C168.584 52.4136 167.93 52.9065 167.87 53.1287C167.756 53.5533 160.295 60.3062 156.765 63.1791C155.633 64.0999 154.02 65.5877 153.178 66.4845C152.337 67.3814 150.663 68.9727 149.46 70.02C148.255 71.0671 147.226 72.0877 147.172 72.2881C147.118 72.488 146.469 73.154 145.728 73.7678C143.571 75.5541 126.126 94.8186 125.9 95.6637C125.832 95.9145 124.914 97.1244 123.857 98.3526C122.801 99.5801 121.293 101.539 120.506 102.705C119.719 103.872 117.645 106.821 115.897 109.26C114.149 111.699 111.684 115.67 110.419 118.086C109.154 120.501 107.672 123.252 107.125 124.2C106.579 125.148 105.234 127.792 104.136 130.076C103.039 132.36 101.407 135.145 100.51 136.264C98.9088 138.262 98.892 138.322 99.5979 139.546C100.304 140.771 100.35 140.775 102.076 139.777C103.231 139.109 103.819 138.403 103.788 137.719C103.762 137.146 104.406 135.525 105.219 134.116C106.574 131.771 108.04 128.985 113.387 118.603C115.716 114.081 122.78 103.802 127.757 97.6931C136.172 87.3633 158.687 63.9723 159.901 64.2975C160.173 64.3703 160.466 64.1662 160.552 63.8438C160.639 63.5214 162.388 61.8113 164.439 60.043C171.438 54.0123 176.794 50.1086 184.702 45.273C185.619 44.7126 186.417 44.0746 186.476 43.8555C186.672 43.1219 192.049 40.6299 193.424 40.635C194.172 40.6379 195.515 40.1289 196.41 39.5034C197.305 38.878 199.359 38.0279 200.975 37.6152C202.591 37.2017 203.959 36.6888 204.017 36.4745C204.075 36.2603 204.34 36.1437 204.607 36.2151C204.873 36.2864 206.457 35.9299 208.128 35.4227C210.896 34.5821 212.764 34.4644 219.999 34.6748C221.639 34.7226 222.231 34.5478 221.839 34.1317C221.521 33.7941 221.045 33.5834 220.779 33.6631C220.514 33.7428 220.357 33.5854 220.429 33.3134C220.502 33.0414 221.137 33.0082 221.838 33.2407C222.54 33.4728 223.083 33.7797 223.045 33.9225C223.007 34.0652 224.148 34.4106 225.582 34.6902C227.561 35.0756 228.168 35.0041 228.104 34.3922C228.058 33.9491 228.278 33.6554 228.594 33.74C228.91 33.8247 229.111 34.1057 229.042 34.3642C228.926 34.7961 230.126 35.0019 232.216 34.9091C232.856 34.8809 232.92 34.7412 232.499 34.2933C231.837 33.5902 233.911 34.0637 249.688 38.2188C262.144 41.499 270.451 44.5244 275.011 47.4411C276.186 48.1921 278.349 49.4539 279.819 50.2444C283.45 52.1983 286.528 55.3276 289.121 59.7019C290.867 62.6481 291.494 63.3131 292.34 63.1146C292.918 62.979 293.823 62.8519 294.351 62.8326C294.879 62.8127 296.29 61.9836 297.488 60.9897C301.666 57.5215 306.875 54.1591 307.72 54.3854C307.951 54.4474 308.018 54.9576 307.867 55.5188C307.598 56.5248 307.622 56.5324 309.541 56.0135C313.636 54.9073 318.578 55.4598 325.812 57.8321C329.494 59.0397 333.614 60.5643 334.967 61.2201C336.32 61.8758 340.927 63.8202 345.205 65.5402C355.584 69.7139 364.378 73.307 370.757 75.9817C378.991 79.4343 383.139 82.0877 390.451 88.5787C398.443 95.6745 402.165 99.7675 409.733 109.788C416.152 118.288 420.367 124.986 422.176 129.566C422.92 131.449 423.839 133.573 424.217 134.286C426.543 138.672 429.701 154.642 429.844 162.741C429.879 164.719 430.082 166.639 430.294 167.007C430.507 167.376 430.529 168.247 430.342 168.943C430.156 169.638 430.555 173.138 431.229 176.72C432.812 185.133 432.949 186.153 432.933 189.48C432.925 191.008 433.085 194.556 433.287 197.365C433.488 200.173 433.386 203.101 433.06 203.87C432.717 204.678 432.694 206.436 433.007 208.029C433.304 209.547 433.382 211.436 433.18 212.228C432.977 213.019 432.907 214.127 433.025 214.69C433.616 217.517 433.838 220.211 433.565 221.245C433.398 221.878 433.043 226.093 432.777 230.612C432.323 238.303 432.094 239.577 429.205 250.52C425.368 265.054 417.802 289.013 415.272 294.638C413.583 298.395 410.238 305.519 406.803 312.678C406.152 314.033 404.711 317.153 403.6 319.609C402.489 322.066 400.496 326.312 399.17 329.044C397.845 331.777 395.927 336.521 394.91 339.587C393.892 342.653 392.543 346.22 391.911 347.514C391.279 348.808 389.533 354.403 388.031 359.947C385.839 368.038 385.182 371.348 384.706 376.705C384.096 383.574 384.771 393.63 386.043 396.602C386.41 397.461 386.659 398.36 386.595 398.601C386.531 398.842 386.959 400.044 387.546 401.272C388.132 402.5 388.565 403.684 388.507 403.904C388.449 404.123 389.762 406.692 391.425 409.613C393.089 412.533 394.398 415.115 394.335 415.35C394.272 415.586 394.44 416.168 394.71 416.645C394.978 417.121 395.861 419.191 396.67 421.244C397.48 423.297 398.242 425.128 398.363 425.314C398.851 426.058 401.11 435.486 401.781 439.584C402.175 441.984 402.814 444.881 403.2 446.021C403.587 447.162 403.903 449.124 403.901 450.382C403.901 451.641 404.061 453.027 404.257 453.462C404.454 453.897 404.481 454.217 404.318 454.173C404.155 454.13 404.14 454.974 404.285 456.051C404.696 459.106 404.16 467.576 403.156 473.894C401.236 485.979 395.33 500.596 389.767 507.028C387.625 509.506 383.571 512.045 382.301 511.704C381.789 511.567 381.282 511.781 381.175 512.181C380.978 512.913 374.524 514.628 373.248 514.286C372.87 514.185 370.655 514.245 368.326 514.419C365.997 514.594 363.388 514.607 362.528 514.449C361.654 514.288 360.611 514.522 360.162 514.982C359.72 515.434 358.994 516.036 358.548 516.321C357.445 517.027 357.682 518.461 358.958 518.803C359.531 518.957 360.942 518.617 362.093 518.048C363.988 517.111 370.84 516.423 372.866 516.966C374.872 517.503 381.804 515.605 385.248 513.576C389.919 510.823 389.955 510.792 392.613 507.234C398.321 499.593 403.804 486.824 405.469 477.294C407.979 462.94 407.944 451.231 405.365 441.835C404.83 439.889 404.261 437.189 404.1 435.835C403.218 428.425 397.682 413.368 393.211 406.222C392.445 404.997 391.321 402.442 390.713 400.545C390.105 398.647 389.276 396.101 388.871 394.887C387.975 392.203 387.177 382.916 387.555 379.575C387.706 378.238 387.925 375.322 388.042 373.095C388.449 365.333 397.089 339.25 403.297 327.039C404.324 325.019 405.466 322.696 405.836 321.877C407.958 317.166 413.289 305.886 415.287 301.875C418.755 294.917 420.716 289.607 425.571 274.029C431.627 254.596 435.66 239.209 435.752 235.178C435.793 233.422 436.083 229.425 436.397 226.296C436.711 223.167 436.914 218.59 436.848 216.124C436.78 213.57 436.964 211.624 437.276 211.602C438.111 211.542 438.172 210.636 437.356 210.418C436.939 210.306 436.721 209.485 436.839 208.471C437.457 203.189 436.266 185.283 434.74 176.889C434.184 173.833 433.496 167.389 433.211 162.569C432.224 145.874 428.164 131.482 421.412 120.737C417.041 113.783 414.556 110.191 412.999 108.576C412.233 107.782 411.021 106.127 410.305 104.9C409.589 103.672 408.704 102.587 408.338 102.489C407.972 102.391 407.572 101.94 407.449 101.486C406.848 99.2673 395.649 88.1125 388.231 82.3435C387.472 81.7534 385.924 80.528 384.791 79.6202C381.515 76.9959 364.415 69.1517 353.604 65.3146C348.809 63.6125 342.381 60.9648 339.837 59.6443C332.438 55.804 318.749 51.4599 316.813 52.3377C316.444 52.505 315.211 52.5429 314.073 52.4221C312.935 52.3012 311.512 52.3174 310.913 52.4577C310.312 52.5985 309.195 52.4086 308.429 52.036C307.189 51.4328 306.413 51.7289 301.35 54.7344C298.222 56.591 295.122 58.7022 294.462 59.4259L293.26 60.7426L291.252 57.0975C290.147 55.0923 288.238 52.537 287.009 51.4181C283.956 48.6399 272.419 41.6422 268.6 40.2514C267.625 39.8967 263.541 38.3345 259.524 36.7797C251.283 33.5896 250.796 33.459 242.67 32.2544ZM253.668 37.5003C254.002 37.7505 254.455 37.8517 254.673 37.7255C254.891 37.5993 254.618 37.3948 254.065 37.2706C253.455 37.1337 253.299 37.2238 253.668 37.5003ZM293.591 121.245C287.912 120.633 280.197 122.983 278.834 125.741C276.981 129.491 277.893 130.675 280.641 128.087C283.82 125.09 291.4 124.009 297.574 125.673C307.4 128.321 318.783 137.467 321.32 144.753C321.865 146.318 322.437 147.757 322.592 147.952C322.747 148.146 323.057 149.161 323.282 150.207C323.506 151.254 324.044 153.131 324.477 154.378C325.272 156.671 325.567 161.809 325.396 170.403C325.344 172.99 325.327 176.491 325.357 178.182C325.387 179.873 325.381 182.25 325.342 183.464C325.303 184.678 325.56 186.909 325.912 188.421C326.264 189.934 326.463 191.502 326.355 191.904C326.247 192.308 326.736 194.45 327.441 196.666C328.147 198.882 329.558 203.391 330.576 206.685C331.595 209.98 333.147 213.991 334.024 215.601C337.405 221.799 343.458 228.442 348.003 230.939C349 231.486 350.998 232.657 352.443 233.539C355.018 235.113 359.089 237.433 361.893 238.925C364.662 240.399 371.803 242.51 372.554 242.077C372.954 241.846 373.76 241.783 374.345 241.937C375.985 242.371 383.28 241.766 387.943 240.81C390.25 240.337 392.791 239.825 393.589 239.671C394.387 239.517 395.561 238.857 396.198 238.204C397.269 237.105 397.294 236.936 396.535 235.96C395.324 234.405 394.741 234.402 392.284 235.943C388.881 238.077 382.292 239.234 374.883 238.998C370.384 238.854 367.982 238.223 363.977 236.132C362.234 235.222 359.367 233.725 357.606 232.806C355.846 231.888 353.616 230.526 352.652 229.781C351.687 229.035 350.512 228.322 350.039 228.195C348.711 227.839 343.044 222.778 341.492 220.562C339.289 217.417 337.113 213.534 335.842 210.481C335.197 208.931 334.475 207.427 334.239 207.139C334.002 206.851 334.025 206.669 334.29 206.735C334.555 206.802 334.44 206.204 334.034 205.406C332.855 203.088 330.005 192.322 329.318 187.589C328.971 185.201 328.73 180.755 328.782 177.709C328.834 174.663 328.905 170.55 328.94 168.57C329.039 162.861 328.669 156.149 328.132 153.887C326.936 148.856 325.747 145.605 323.898 142.304C321.683 138.35 321.156 137.592 318.971 135.206C316.528 132.538 310.512 127.402 309.161 126.829C308.557 126.573 306.295 125.49 304.136 124.422C300.041 122.397 297.679 121.685 293.591 121.245ZM253.633 111.666C247.346 111.349 244.181 111.504 237.863 112.435C237.226 112.529 235.899 112.642 234.913 112.686C228.553 112.972 212.355 121.44 205.725 127.945C203.584 130.045 201.784 131.943 201.725 132.163C201.666 132.383 199.578 134.883 197.084 137.719C191.889 143.627 188.879 147.72 186.716 151.817C185.884 153.394 184.796 155.23 184.299 155.899C183.801 156.567 182.782 158.452 182.034 160.088C177.579 169.833 173.002 178.41 171.922 179.034C171.568 179.238 171.192 179.727 171.087 180.119C170.556 182.1 159.155 194.144 155.164 196.939C148.443 201.646 145.986 202.684 140.144 203.283C137 203.605 132.918 204.076 131.072 204.33C129.226 204.583 127.159 204.641 126.479 204.459C125.798 204.276 124.976 204.376 124.65 204.68C123.604 205.654 117.448 205.564 112.579 204.504C107.742 203.451 103.303 201.394 100.078 198.713C97.9377 196.934 95.2906 196.594 94.6834 198.02C94.1729 199.218 94.4014 199.46 98.7155 202.303C103.013 205.133 106.23 206.338 112.117 207.317C119.399 208.53 120.616 208.665 122.49 208.463C124.243 208.274 124.227 208.214 123.765 213.469C123.634 214.964 123.399 217.655 123.243 219.449C123.087 221.244 122.412 225.695 121.744 229.341C121.075 232.987 120.13 238.368 119.643 241.297C119.156 244.227 118.419 248.286 118.005 250.317C116.018 260.075 115.129 267.972 115.119 275.973C115.116 278.88 114.677 283.77 114.144 286.84C113.611 289.911 113.153 293.043 113.127 293.801C113.009 297.217 113.11 299.808 113.447 302.002C113.835 304.53 116.99 314.011 118.016 315.73C118.354 316.297 119.035 317.606 119.529 318.639C120.966 321.646 126.958 330.571 128.858 332.534C129.816 333.524 131.216 335.302 131.969 336.484C132.722 337.667 133.725 339.196 134.199 339.882C134.672 340.569 135.9 342.357 136.927 343.856C137.954 345.355 139.324 347.105 139.971 347.745C142.456 350.201 145.992 354.287 146.183 354.922C146.292 355.287 147.119 356.272 148.02 357.11C148.921 357.948 150.373 359.702 151.246 361.008C156.218 368.445 157.91 370.543 168.014 381.806C172.255 386.534 180.044 393.308 183.932 395.651C185.906 396.841 188.284 398.368 189.216 399.043C191.063 400.382 197.48 403.155 202.348 404.718C205.007 405.571 213.314 406.892 224.742 408.277C228.886 408.779 231.935 408.876 234.112 408.575C235.064 408.444 236.356 408.288 236.983 408.231C237.61 408.174 239.109 407.981 240.313 407.802C241.518 407.623 242.722 407.535 242.989 407.607C243.256 407.679 244.99 407.48 246.841 407.167C248.692 406.853 251.74 406.473 253.616 406.321C258.185 405.951 261.093 404.956 267.318 401.631C270.196 400.094 272.887 398.926 273.297 399.036C273.708 399.146 274.175 399.056 274.336 398.835C274.497 398.615 276.062 397.754 277.813 396.922C279.565 396.09 283.386 394.074 286.305 392.443C289.224 390.812 291.844 389.539 292.127 389.615C292.409 389.69 293.905 389.134 295.45 388.377C296.995 387.621 298.652 386.936 299.133 386.854C301.967 386.373 312.405 382.055 316.33 379.739C318.148 378.667 320.389 377.546 321.309 377.249C323.465 376.552 328.854 372.552 330.795 370.208C331.625 369.206 334.281 365.912 336.699 362.888C339.117 359.863 341.324 357.2 341.604 356.969C342.741 356.031 344.653 351.929 348.06 343.119C348.918 340.901 350.512 337.322 351.6 335.165C359.2 320.117 369.759 291.254 375.226 270.587C377.158 263.283 379.345 255.162 380.085 252.542C381.291 248.266 381.338 247.69 380.54 246.941C379.622 246.08 377.107 246.199 377.366 247.091C377.702 248.247 375.191 259.475 372.06 270.818C368.801 282.626 363.2 300.244 361.91 302.747C361.601 303.347 360.612 305.767 359.712 308.127C356.965 315.325 354.344 321.607 350.942 329.147C349.156 333.105 347.056 337.801 346.275 339.581C340.44 352.895 338.406 356.749 336.47 358.171C336.052 358.477 335.383 359.266 334.983 359.924C334.303 361.04 329.528 366.644 326.684 369.663C323.828 372.693 307.982 380.801 300.99 382.809C298.208 383.608 296.47 384.236 295.245 384.886C294.67 385.191 293.105 385.819 291.766 386.282C290.428 386.745 287.577 388.076 285.43 389.24C283.284 390.405 280.524 391.676 279.298 392.064C278.071 392.453 276.811 393.15 276.497 393.612C276.182 394.076 274.335 395.155 272.392 396.011C270.45 396.868 266.81 398.588 264.305 399.834C260.211 401.871 253.935 403.567 250.16 403.659C249.39 403.677 247.586 403.878 246.149 404.104C244.713 404.33 243.017 404.593 242.38 404.687C240.89 404.907 233.654 405.276 229.699 405.335C228.011 405.359 224.809 405.172 222.584 404.919C220.359 404.666 217.215 404.341 215.598 404.195C210.933 403.776 198.007 400.092 194.381 398.147C192.643 397.216 190.674 396.163 190.005 395.807C189.336 395.451 188.602 394.923 188.374 394.632C188.147 394.341 187.189 393.714 186.247 393.237C185.304 392.761 184.032 391.907 183.42 391.34C182.807 390.773 181.07 389.323 179.558 388.117C176.56 385.726 171.171 380.377 169.898 378.528C169.458 377.89 168.432 376.77 167.617 376.04C166.803 375.311 165.835 374.253 165.468 373.688C165.1 373.125 163.828 371.622 162.64 370.349C160.463 368.015 156.893 363.32 155.858 361.43C155.55 360.867 154.35 359.289 153.192 357.923C152.034 356.557 150.207 354.328 149.132 352.969C148.058 351.61 146.278 349.505 145.179 348.293C144.079 347.08 142.74 345.594 142.204 344.992C141.113 343.766 138.688 340.338 134.799 334.522C133.365 332.378 131.998 330.573 131.761 330.509C131.524 330.446 130.947 329.765 130.478 328.996C130.009 328.227 128.973 326.763 128.176 325.742C126.117 323.104 121.554 315.149 120.198 311.831C119.565 310.285 118.753 308.445 118.391 307.742C118.03 307.039 117.743 305.898 117.755 305.206C117.766 304.515 117.604 303.903 117.396 303.847C116.172 303.519 115.986 295.075 117.056 288.455C117.977 282.755 118.293 278.375 118.199 272.626C118.135 268.7 119.233 259.712 120.766 251.613C121.483 247.827 122.458 242.33 122.934 239.397C123.41 236.464 124.415 230.85 125.168 226.92C125.92 222.99 126.566 218.657 126.603 217.29C126.696 213.873 126.968 211.32 127.455 209.311C127.681 208.376 127.635 207.542 127.352 207.455C127.07 207.369 127.495 207.134 128.298 206.934C129.101 206.734 130.008 206.753 130.315 206.976C130.622 207.199 131.094 207.173 131.364 206.918C131.634 206.664 132.454 206.616 133.187 206.813C133.92 207.009 136.13 206.872 138.1 206.508C140.069 206.144 142.298 205.874 143.053 205.91C144.889 205.997 146.472 205.326 152.671 201.837C158.57 198.516 160.501 196.878 166.47 190.136C176.302 179.029 176.58 178.599 185.066 161.456C185.735 160.105 186.933 157.9 187.727 156.556C188.523 155.213 189.309 153.605 189.476 152.984C189.642 152.362 190.092 151.503 190.475 151.074C190.858 150.646 191.703 149.436 192.353 148.386C195.566 143.196 210.304 126.767 211.467 127.078C211.693 127.139 212.12 126.815 212.417 126.359C213.106 125.302 220.328 120.879 222.007 120.486C222.706 120.323 223.36 119.883 223.46 119.51C223.56 119.136 224.837 118.572 226.297 118.255C227.758 117.938 229.002 117.498 229.061 117.276C229.12 117.055 229.737 116.848 230.43 116.815C231.979 116.745 238.698 115.683 240.77 115.182C244.856 114.195 259.393 116.259 260.378 117.967C260.602 118.356 261.843 119.001 263.136 119.401C267.235 120.671 268.209 118.781 265.085 115.615C263.46 113.968 257.323 111.852 253.633 111.666ZM329.878 238.92C327.96 238.662 325.066 238.258 323.448 238.022C315.067 236.8 312.433 236.536 310.127 236.688C308.738 236.78 307.388 236.798 307.128 236.728C306.868 236.658 304.74 236.931 302.399 237.335C296.561 238.342 295.071 238.503 294.041 238.239C293.553 238.114 291.05 238.286 288.479 238.62C285.415 239.018 283.573 239.004 283.136 238.579C282.481 237.94 279.002 238.286 278.092 239.08C277.859 239.283 277.763 240.779 277.877 242.405C277.992 244.03 277.952 245.891 277.788 246.54C277.22 248.793 277.969 249.949 280.054 250.032C281.089 250.073 282.457 249.839 283.095 249.512C284.409 248.837 287.24 248.501 297.768 247.767C305.859 247.203 305.917 247.197 310.931 246.356C313.081 245.995 315.959 246.015 318.422 246.407C324.227 247.331 325.272 247.261 326.029 245.898C326.392 245.246 327.398 244.604 328.267 244.471C329.135 244.338 330.011 244.095 330.214 243.932C330.418 243.769 331.756 244.404 333.188 245.344C334.619 246.283 336.932 247.533 338.328 248.12C340.861 249.187 343.706 251.623 343.466 252.52C343.396 252.782 341.718 251.808 339.737 250.358C337.083 248.415 334.951 247.328 331.632 246.225L327.129 244.729L326.829 246.517L326.529 248.304L330.752 249.263C334.217 250.049 335.245 250.493 336.482 251.735C339.386 254.652 345.85 258.594 350.549 260.314C351.941 260.824 353.529 261.433 354.078 261.667C354.76 261.959 355.212 261.774 355.508 261.082C355.81 260.377 355.413 259.427 354.2 257.949C353.243 256.784 351.806 254.875 351.007 253.707C350.207 252.541 348.86 250.959 348.014 250.194C346.592 248.908 346.559 248.768 347.587 248.37C349.454 247.646 348.828 246.536 346.083 245.702C344.644 245.266 342.685 244.165 341.541 243.151C339.241 241.11 335.16 239.63 329.878 238.92ZM339.223 243.458C339.105 243.9 339.442 244.509 339.973 244.811C340.503 245.113 340.878 245.58 340.806 245.85C340.734 246.119 340.947 246.257 341.28 246.157C342.27 245.859 342.144 245.328 340.754 243.956C339.597 242.812 339.413 242.752 339.223 243.458ZM196.597 209.158C196.503 209.384 196.331 210.078 196.216 210.7C196.032 211.687 195.577 211.793 192.619 211.534C190.756 211.371 189.014 211.443 188.747 211.694C188.481 211.945 187.211 212 185.924 211.817C184.43 211.603 183.225 211.785 182.588 212.321C181.8 212.982 181.223 212.994 179.839 212.377C178.876 211.947 177.905 211.401 177.681 211.164C177.457 210.926 176.648 210.722 175.882 210.71C174.653 210.69 174.481 210.887 174.412 212.399C174.344 213.885 174.225 214.031 173.509 213.511C172.349 212.667 164.036 213.595 161.36 214.866C159.661 215.673 159.376 216.372 160.357 217.328C161.183 218.133 164.269 218.011 164.496 217.163C164.684 216.465 167.251 216.102 169.985 216.389C171.174 216.513 172.694 216.512 173.36 216.384C174.255 216.213 175.304 216.639 177.358 218.007C178.89 219.028 180.354 219.799 180.612 219.721C181.633 219.414 181.276 218.486 179.638 217.187L177.919 215.823L180.369 216.016C181.716 216.121 183.411 216.511 184.134 216.88C185.632 217.645 188.021 217.29 187.737 216.346C187.634 216 187.078 215.715 186.502 215.712C185.926 215.709 185.504 215.52 185.566 215.292C185.768 214.537 188.208 214.902 189.999 215.955C191.227 216.676 192.129 216.907 192.964 216.711C193.858 216.502 195.122 216.924 197.945 218.376C200.026 219.446 202.397 220.624 203.216 220.993C204.034 221.362 204.892 221.895 205.122 222.176C205.352 222.458 206.574 223.289 207.838 224.023C209.101 224.757 210.207 225.597 210.295 225.89C210.382 226.182 210.699 226.348 211 226.258C211.3 226.167 212.067 226.678 212.705 227.393C213.646 228.447 215.375 229.151 221.866 231.123L229.868 233.553L229.642 235.434C229.39 237.534 230.739 238.702 232.128 237.584C233.253 236.678 234.842 237.719 235.256 239.634C235.779 242.048 237.487 243.499 237.917 241.894C238.023 241.498 238.795 240.949 239.634 240.672C240.472 240.395 241.244 239.849 241.349 239.458C241.454 239.066 241.961 238.702 242.476 238.648C244.434 238.442 244.693 229.457 242.756 228.938C242.331 228.824 241.478 228.886 240.859 229.076C239.978 229.346 239.32 229.109 237.814 227.981C236.757 227.19 235.433 226.42 234.872 226.269C234.311 226.119 232.099 224.65 229.957 223.007C227.06 220.783 225.353 219.841 223.292 219.33C221.769 218.951 219.568 218.001 218.402 217.217C216.966 216.251 214.212 215.226 209.86 214.036C206.328 213.07 203.235 212.007 202.989 211.673C202.371 210.838 196.81 208.649 196.597 209.158ZM346.091 254.781C346.425 255.032 346.877 255.133 347.096 255.007C347.314 254.88 347.041 254.676 346.488 254.552C345.878 254.415 345.722 254.505 346.091 254.781ZM347.561 255.908C347.484 256.193 347.903 256.556 348.49 256.713C349.077 256.87 349.476 256.727 349.376 256.394C349.276 256.061 348.859 255.699 348.447 255.589C348.036 255.479 347.637 255.622 347.561 255.908ZM207.767 220.732C207.857 221.031 208.346 221.387 208.854 221.524C209.362 221.66 211.611 223.013 213.851 224.532C217.954 227.313 221.565 228.708 223.252 228.163C223.968 227.932 223.87 227.788 222.798 227.494C222.047 227.288 219.525 225.964 217.194 224.552C212.871 221.934 207.472 219.745 207.767 220.732ZM220.873 315.355C219.688 317.436 219.45 321.682 220.411 323.557C221.933 326.523 222.989 327.2 227.837 328.319L232.279 329.344L233.616 332.12C234.739 334.45 235.318 335.039 237.222 335.787C240.826 337.201 243.946 336.926 247.073 334.917L249.802 333.164L253.892 334.621C257.502 335.908 258.111 335.992 259.065 335.332C260.71 334.196 262.282 331.844 262.537 330.139C262.731 328.836 262.535 328.549 261.209 328.193C259.749 327.802 259.598 327.917 258.767 330.043L257.882 332.31L254.04 331.089C249.939 329.787 248.407 330.012 245.149 332.397C244.44 332.916 243.772 333.188 243.664 333C243.556 332.813 242.887 332.871 242.179 333.129C241.471 333.388 240.148 333.4 239.239 333.157C237.888 332.795 237.314 332.124 236.084 329.476L234.58 326.238L229.475 325.254L224.37 324.271L223.477 322.36C222.906 321.139 222.713 319.46 222.941 317.712C223.225 315.539 223.101 314.922 222.34 314.718C221.813 314.577 221.152 314.864 220.873 315.355ZM53.2853 278.676C50.9889 281.839 42.9237 310.875 42.7141 316.734C42.6667 318.06 41.7922 323.303 40.7708 328.384C33.9697 362.214 32.9418 368.716 33.1816 376.364C33.3519 381.795 35.1973 392.502 36.3312 394.639C36.7403 395.411 37.0185 396.254 36.9489 396.514C36.8218 396.988 40.0195 406.19 40.9383 407.995C41.2088 408.527 42.416 411.229 43.6202 414C45.6593 418.692 49.6345 425.349 51.5074 427.209C51.9545 427.653 53.6786 429.925 55.3394 432.26C59.6412 438.305 66.4088 444.812 72.4489 448.709C75.4277 450.63 80.735 452.813 91.7147 456.633C95.9097 458.092 100.789 459.954 102.557 460.771C105.876 462.302 108.802 464.436 108.603 465.177C108.541 465.41 108.91 465.713 109.423 465.851C109.937 465.988 111.439 467.83 112.762 469.945C114.796 473.196 115.192 474.342 115.327 477.381C115.522 481.734 114.946 484.055 112.646 488.189C109.979 492.984 108.382 494.126 104.929 493.715C101.388 493.292 99.8686 493.626 99.5269 494.901C99.1137 496.443 99.8034 496.755 103.762 496.816C107.925 496.881 110.466 495.925 112.063 493.694C112.665 492.855 113.459 491.748 113.829 491.235C117.203 486.557 118.77 481.327 118.463 475.763C118.292 472.659 117.921 471.563 116.214 469.115C115.09 467.503 113.271 465.34 112.171 464.309C111.071 463.278 110.091 462.234 109.993 461.989C109.684 461.222 101.713 457.116 99.2647 456.462C97.9808 456.12 94.4547 454.809 91.4289 453.55C88.4032 452.291 83.2632 450.27 80.0071 449.057C74.538 447.022 73.7671 446.573 69.9082 443.181C64.0334 438.016 60.9676 434.766 57.4464 429.968C55.7666 427.68 54.2054 425.571 53.9769 425.283C52.0889 422.9 47.8581 416.386 47.4837 415.285C47.2272 414.531 46.2496 412.321 45.3113 410.375C44.3732 408.428 43.099 405.307 42.4803 403.438C41.8615 401.569 41.0333 399.548 40.6398 398.948C40.2466 398.347 40.0267 397.475 40.1516 397.009C40.2765 396.543 40.1454 396.098 39.8601 396.022C39.5749 395.946 39.4354 395.533 39.5501 395.104C39.6649 394.676 39.5809 394.278 39.3631 394.22C39.1458 394.161 38.8602 393.592 38.7292 392.955C38.5981 392.318 38.1245 390.015 37.6769 387.837C36.1891 380.6 35.7716 373.54 36.4621 367.291C36.8856 363.46 40.5999 343.687 44.3567 325.269C45.2932 320.676 45.9932 316.697 45.9118 316.426C45.5071 315.075 46.575 310.349 50.7459 295.03C54.578 280.957 55.1837 278.275 54.5685 278.11C54.1666 278.003 53.5893 278.257 53.2853 278.676ZM193.286 321.334C190.664 321.107 188.724 323.403 187.749 327.89C187.07 331.017 187.634 332.428 188.611 330.046C189.508 327.86 192.451 325.08 194.461 324.52C195.693 324.177 196.581 323.551 196.754 322.905C197.052 321.791 196.698 321.63 193.286 321.334ZM221.764 337.444C220.975 337.536 219.603 337.988 218.716 338.448C217.828 338.907 215.884 339.394 214.396 339.53C211.553 339.789 211.209 340.035 211.932 341.29C212.61 342.465 210.786 342.461 206.284 341.277C203.033 340.422 201.958 339.876 199.783 337.973C196.875 335.431 195.675 335.229 195.148 337.196C194.749 338.685 195.26 339.165 200.701 342.406C205.334 345.166 212.667 346.64 215.983 345.478C216.648 345.245 217.71 345.193 218.343 345.363C218.976 345.532 219.701 345.476 219.954 345.238C220.807 344.433 224.551 345.904 227.153 348.066C231.16 351.396 232.708 351.847 237.089 350.96C240.03 350.365 241.241 350.374 242.59 350.999C247.363 353.211 251.173 354.262 253.788 354.086C255.259 353.988 257.102 354.079 257.885 354.288C259.041 354.598 259.448 354.397 260.06 353.215C261.498 350.439 260.579 349.88 255.928 350.698C252.09 351.374 251.293 351.19 251.028 349.566C250.913 348.867 250.176 347.895 249.39 347.408C248.603 346.921 247.312 345.995 246.521 345.351C244.145 343.418 242.943 343.293 236.757 344.335C235.714 344.51 234.887 344.011 232.38 341.693C229.807 339.316 228.777 338.706 226.244 338.056C224.569 337.626 222.553 337.351 221.764 337.444ZM221.939 340.572C221.14 340.499 220.076 340.736 219.574 341.1C218.782 341.674 218.801 341.748 219.714 341.659C223.35 341.303 226.483 342.603 230.772 346.247C232.763 347.94 233.602 348.368 234.606 348.206C235.743 348.021 235.589 347.842 233.268 346.651C231.826 345.911 230.078 344.615 229.383 343.773C228.117 342.238 224.865 340.84 221.939 340.572Z" fill="#0400DD"/>
<path d="M242.663 355.949L238.978 357.29L235.243 360.711C233.93 361.146 232.062 361.042 228.417 360.331C222.574 359.19 219.557 357.712 217.421 354.942C216.086 353.211 214.484 352.274 213.667 352.747C212.981 353.143 213.151 355.563 213.902 356.1C214.325 356.403 215.369 357.316 216.221 358.13C218.629 360.43 222.65 362.242 227.848 363.37C232.038 364.279 232.987 364.293 235.794 363.49C237.547 362.988 245.114 358.367 245.114 358.367C245.114 358.367 248.439 357.178 248.299 355.85C248.159 354.507 246.55 354.535 242.663 355.949Z" fill="#0400DD"/>
<path d="M331.463 268.381C335.366 268.381 340.83 272.025 343.241 267.203" stroke="#0400DD" stroke-width="3" stroke-linecap="round"/>
<path d="M330.286 262.492C332.559 262.492 332.841 263.895 334.997 262.753C336.351 262.036 337.207 260.797 338.53 260.136" stroke="#0400DD" stroke-width="3" stroke-linecap="round"/>
<path d="M164.218 235.403C159.763 235.403 156.642 233.887 152.44 233.047" stroke="#0400DD" stroke-width="3" stroke-linecap="round"/>
<path d="M167.752 230.691C164.763 230.691 161.923 228.769 159.507 227.158" stroke="#0400DD" stroke-width="3" stroke-linecap="round"/>
<path d="M179.529 141.18C169.232 150.333 162.783 165.977 149.954 172.391C139.387 177.675 117.017 182.132 112.396 168.269" stroke="#0400DD" stroke-width="3" stroke-linecap="round"/>
<path d="M75.8846 287.225C75.8846 294.864 73.7354 302.175 73.5291 309.603C73.3768 315.083 72.3966 320.741 71.1735 326.092C69.4939 333.44 72.4689 338.976 73.7908 346.114C76.7901 362.311 85.7788 379.212 98.9168 389.43C105.69 394.698 106.507 386.538 106.507 381.448" stroke="#0400DD" stroke-width="3" stroke-linecap="round"/>
<path d="M117.107 247.18C111.031 247.18 101.161 250.965 100.618 240.114C100.254 232.835 95.0571 219.6 99.4403 213.025" stroke="#0400DD" stroke-width="3" stroke-linecap="round"/>
</svg>
